<?xml version="1.0" standalone="no"?>
<!DOCTYPE svg PUBLIC "-//W3C//DTD SVG 20010904//EN"
 "http://www.w3.org/TR/2001/REC-SVG-20010904/DTD/svg10.dtd">
<svg version="1.0" xmlns="http://www.w3.org/2000/svg"
 width="731.000000pt" height="731.000000pt" viewBox="0 0 731.000000 731.000000"
 preserveAspectRatio="xMidYMid meet">
<metadata>
Created by potrace 1.14, written by Peter Selinger 2001-2017
</metadata>
<g transform="translate(0.000000,731.000000) scale(0.100000,-0.100000)"
fill="#000000" stroke="none">
<path d="M0 3655 l0 -3655 3655 0 3655 0 0 3655 0 3655 -3655 0 -3655 0 0
-3655z m960 3145 l0 -450 450 0 450 0 0 450 0 450 450 0 450 0 0 -450 0 -450
450 0 450 0 0 450 0 450 450 0 450 0 0 -450 0 -450 450 0 450 0 0 450 0 450
450 0 450 0 0 -450 0 -450 450 0 450 0 0 -450 0 -450 -450 0 -450 0 0 -450 0
-450 450 0 450 0 0 -450 0 -450 -450 0 -450 0 0 -450 0 -450 450 0 450 0 0
-450 0 -450 -450 0 -450 0 0 -450 0 -450 450 0 450 0 0 -450 0 -450 -450 0
-450 0 0 450 0 450 -450 0 -450 0 0 -450 0 -450 -450 0 -450 0 0 450 0 450
-450 0 -450 0 0 -450 0 -450 -450 0 -450 0 0 450 0 450 -450 0 -450 0 0 -450
0 -450 -450 0 -450 0 0 450 0 450 -450 0 -450 0 0 450 0 450 450 0 450 0 0
450 0 450 -450 0 -450 0 0 450 0 450 450 0 450 0 0 450 0 450 -450 0 -450 0 0
450 0 450 450 0 450 0 0 450 0 450 -450 0 -450 0 0 450 0 450 450 0 450 0 0
-450z m569 211 c115 -59 173 -201 175 -426 1 -117 -1 -130 -16 -130 -16 0 -18
15 -22 125 -8 231 -58 350 -172 406 -53 26 -62 44 -23 44 11 0 37 -9 58 -19z
m5511 -46 c0 -10 -432 -20 -458 -10 -7 3 -10 9 -7 15 9 14 465 9 465 -5z
m-5760 -14 c0 -26 -34 -66 -48 -57 -26 16 -4 76 28 76 13 0 20 -7 20 -19z
m3748 -39 c2 -14 11 -22 23 -22 10 0 19 -7 19 -15 0 -8 -9 -15 -19 -15 -12 0
-21 -9 -25 -25 -4 -14 -11 -25 -16 -25 -5 0 -12 11 -16 25 -4 16 -13 25 -25
25 -10 0 -19 7 -19 15 0 8 9 15 20 15 13 0 20 7 20 18 0 38 33 41 38 4z m1957
-2 c-4 -6 -73 -10 -175 -10 -102 0 -171 4 -175 10 -4 7 57 10 175 10 118 0
179 -3 175 -10z m-5828 -161 c16 -16 5 -39 -17 -39 -20 0 -30 17 -22 38 5 15
24 16 39 1z m3963 -34 c0 -12 -19 -15 -110 -15 -91 0 -110 3 -110 15 0 12 19
15 110 15 91 0 110 -3 110 -15z m-1736 -13 c33 -9 61 -23 64 -29 5 -17 -14
-16 -85 2 -31 8 -100 15 -153 15 -53 0 -122 -7 -153 -15 -71 -18 -90 -19 -85
-2 9 24 119 45 238 45 77 0 135 -5 174 -16z m3601 -52 c-4 -6 -73 -10 -175
-10 -102 0 -171 4 -175 10 -4 7 57 10 175 10 118 0 179 -3 175 -10z m-1815
-15 c0 -13 -24 -15 -160 -15 -136 0 -160 2 -160 15 0 13 24 15 160 15 136 0
160 -2 160 -15z m-1755 -15 c0 -13 -30 -15 -199 -18 -115 -1 -204 2 -209 7
-26 26 9 31 206 29 172 -3 202 -5 202 -18z m3590 -10 c-4 -6 -80 -10 -195 -10
-115 0 -191 4 -195 10 -4 7 63 10 195 10 132 0 199 -3 195 -10z m-3877 -61
c67 -11 97 -11 165 0 154 25 150 24 145 10 -19 -56 -438 -55 -456 0 -3 10 4
12 29 8 19 -3 71 -11 117 -18z m3895 -14 c2 -10 -395 -20 -421 -10 -7 3 -10 9
-7 15 9 14 424 9 428 -5z m-3975 -42 c81 -24 237 -23 329 1 69 19 98 17 77 -4
-5 -5 -38 -17 -74 -27 -127 -35 -402 -12 -418 35 -5 16 19 15 86 -5z m3807
-4860 c13 -12 16 -27 12 -56 -5 -35 -2 -44 24 -69 38 -39 41 -108 5 -153 l-23
-29 41 -26 c50 -32 94 -109 103 -180 l6 -50 -213 0 -213 0 6 50 c9 71 53 148
103 180 l41 26 -23 29 c-36 45 -33 114 5 153 26 25 29 34 24 69 -6 47 14 73
57 73 16 0 36 -8 45 -17z m-4517 -854 c3 -28 -16 -43 -43 -33 -15 6 -21 45 -8
58 16 16 48 1 51 -25z m3610 -60 c102 -27 172 -88 210 -184 24 -60 42 -172 42
-262 l0 -93 -210 0 c-184 0 -210 2 -210 16 0 25 19 55 76 118 55 60 83 123 85
185 0 20 4 45 8 56 9 22 4 45 -9 45 -5 0 -14 -16 -20 -35 -7 -22 -33 -53 -67
-83 -31 -26 -79 -68 -108 -95 -46 -41 -52 -44 -48 -23 7 34 -16 44 -37 16 -27
-36 -54 -23 -58 28 -3 36 5 58 44 130 25 48 60 106 77 129 19 27 30 54 29 74
-1 31 0 31 14 10 22 -31 67 -28 90 7 l18 27 6 -25 c5 -20 16 -27 68 -41z
m-5605 11 c4 -17 14 -20 67 -20 53 0 63 3 67 20 4 14 14 20 33 20 19 0 29 -6
33 -20 4 -17 14 -20 67 -20 53 0 63 3 67 20 3 11 14 20 24 20 15 0 19 -7 19
-35 l0 -35 -210 0 -210 0 0 35 c0 28 4 35 19 35 10 0 21 -9 24 -20z m2000 -35
c111 -46 163 -187 90 -245 -22 -17 -40 -20 -123 -20 -112 0 -145 16 -156 75
-12 68 43 156 119 189 18 8 33 15 33 15 1 1 18 -6 37 -14z m1803 -22 c20 -27
17 -73 -8 -110 -13 -18 -25 -33 -28 -33 -13 0 -50 69 -50 93 0 59 55 90 86 50z
m-3456 -38 c-10 -12 -43 -15 -180 -15 -137 0 -170 3 -180 15 -11 13 10 15 180
15 170 0 191 -2 180 -15z m3309 -43 c49 -23 91 -85 91 -137 l0 -43 -47 -7
c-27 -4 -68 -14 -91 -22 -43 -14 -45 -14 -83 12 -21 15 -48 46 -59 70 -19 39
-20 47 -7 77 31 74 104 93 196 50z m379 1 c13 -8 30 -30 38 -50 14 -32 13 -38
-6 -78 -11 -24 -38 -55 -59 -70 -38 -26 -40 -26 -83 -12 -23 8 -64 18 -90 22
l-48 7 0 40 c0 118 150 203 248 141z m-3718 -103 l0 -120 -150 0 -150 0 0 120
0 120 150 0 150 0 0 -120z m1770 -109 c5 -11 10 -22 10 -25 0 -3 -58 -6 -130
-6 -71 0 -130 3 -130 6 0 3 5 14 10 25 10 17 22 19 120 19 98 0 110 -2 120
-19z m1824 -25 c36 -15 53 -53 19 -42 -53 16 -114 26 -163 26 -49 0 -110 -10
-162 -26 -25 -7 -23 22 1 36 61 32 234 36 305 6z m-3584 -16 c11 -20 8 -20
-160 -20 -168 0 -171 0 -160 20 10 19 21 20 160 20 139 0 150 -1 160 -20z
m1769 -36 c-35 -34 -223 -34 -258 0 -14 15 -2 16 129 16 131 0 143 -1 129 -16z
m1815 -18 c36 -15 53 -53 19 -42 -111 33 -215 33 -325 0 -25 -7 -23 22 1 36
61 32 234 36 305 6z m-3554 -21 l0 -25 -190 0 -190 0 0 25 0 25 190 0 190 0 0
-25z m1684 -46 c27 -5 78 -9 115 -9 41 -1 76 -7 91 -16 25 -15 24 -15 -14 -9
-50 8 -481 8 -532 0 -38 -6 -38 -5 -14 8 14 8 67 17 125 20 55 3 111 10 125
16 14 5 32 7 40 5 8 -3 37 -10 64 -15z m1861 1 l30 -12 -40 -15 c-22 -9 -74
-16 -115 -17 -77 -1 -178 20 -163 35 28 28 223 34 288 9z m-3485 -25 c0 -13
-34 -15 -250 -15 -216 0 -250 2 -250 15 0 13 34 15 250 15 216 0 250 -2 250
-15z"/>
<path d="M4093 7131 c-3 -11 -15 -21 -27 -23 -28 -4 -27 -32 2 -36 31 -5 28
-34 -8 -70 -18 -19 -30 -41 -30 -57 0 -22 -4 -26 -17 -20 -97 37 -156 28 -213
-30 -30 -31 -35 -43 -35 -85 0 -39 6 -56 31 -87 17 -21 45 -47 62 -58 23 -15
31 -28 32 -49 0 -23 3 -27 18 -21 81 35 103 39 202 39 99 0 121 -4 203 -39 14
-6 17 -2 17 21 1 21 9 34 32 49 17 11 45 37 62 58 25 31 31 48 31 87 0 42 -5
54 -35 85 -57 58 -116 67 -212 30 -14 -6 -18 -2 -18 20 0 16 -12 38 -30 57
-36 36 -39 65 -7 70 28 4 29 32 1 36 -12 2 -24 12 -27 23 -3 10 -10 19 -17 19
-7 0 -14 -9 -17 -19z m-84 -235 c30 -17 63 -46 85 -78 l16 -22 16 22 c50 72
123 107 217 103 16 -1 42 -15 63 -34 63 -57 46 -130 -46 -207 l-52 -43 -51 19
c-72 26 -223 26 -294 0 l-51 -19 -52 43 c-88 74 -107 147 -52 202 47 48 126
53 201 14z"/>
<path d="M3836 6869 c-49 -38 -25 -123 47 -168 35 -22 35 -22 124 -4 l88 18
-5 33 c-16 104 -177 181 -254 121z"/>
<path d="M4228 6870 c-47 -25 -92 -80 -98 -122 l-5 -33 88 -18 c89 -18 89 -18
124 4 72 45 96 130 47 168 -34 27 -106 27 -156 1z"/>
<path d="M2274 7132 c-24 -16 -34 -50 -24 -78 8 -21 8 -29 -2 -35 -82 -47
-121 -102 -126 -177 -3 -49 0 -63 23 -96 18 -27 23 -42 16 -49 -6 -6 -11 -19
-11 -29 0 -17 13 -18 160 -18 147 0 160 1 160 18 0 10 -5 23 -11 29 -7 7 -2
22 16 49 23 33 26 47 23 96 -5 75 -44 130 -126 177 -10 6 -10 14 -2 35 17 45
-12 86 -60 86 -14 0 -30 -4 -36 -8z m54 -220 c2 -14 11 -22 23 -22 10 0 19 -7
19 -15 0 -8 -9 -15 -19 -15 -12 0 -21 -9 -25 -25 -4 -14 -11 -25 -16 -25 -5 0
-12 11 -16 25 -4 16 -13 25 -25 25 -10 0 -19 7 -19 15 0 8 9 15 20 15 13 0 20
7 20 18 0 38 33 41 38 4z m92 -197 c0 -12 -19 -15 -110 -15 -91 0 -110 3 -110
15 0 12 19 15 110 15 91 0 110 -3 110 -15z"/>
<path d="M5840 7089 l-31 -32 -29 28 c-41 39 -66 31 -62 -22 2 -35 -5 -53 -43
-112 -77 -118 -117 -210 -110 -251 9 -46 31 -70 66 -70 15 0 31 -4 34 -10 11
-18 41 -11 66 16 13 14 58 52 100 84 l76 58 -10 -39 c-6 -24 -30 -62 -63 -99
-63 -70 -81 -102 -86 -150 l-3 -35 213 -3 213 -2 -5 127 c-8 234 -58 353 -172
409 -53 26 -62 44 -23 44 32 0 93 -36 127 -75 76 -85 105 -189 106 -373 1
-112 3 -132 16 -129 12 2 15 22 12 117 -5 197 -43 322 -120 397 -39 38 -111
76 -165 88 -20 4 -31 15 -39 35 -13 38 -29 38 -68 -1z m-60 -138 c0 -26 -34
-66 -48 -57 -26 16 -4 76 28 76 13 0 20 -7 20 -19z m-123 -202 c16 -16 5 -39
-17 -39 -20 0 -30 17 -22 38 5 15 24 16 39 1z"/>
<path d="M267 7073 c-4 -3 -7 -29 -7 -58 0 -44 4 -55 30 -80 l30 -29 0 -131
c0 -119 -2 -134 -20 -150 -12 -11 -20 -31 -20 -51 0 -28 -4 -33 -27 -36 -25
-3 -28 -7 -28 -43 l0 -40 285 0 285 0 0 40 c0 36 -3 40 -27 43 -24 3 -28 8
-28 36 0 20 -8 40 -20 51 -18 16 -20 31 -20 151 l0 132 31 26 c28 24 30 30 27
83 l-3 58 -53 3 c-47 3 -54 1 -59 -17 -7 -29 -59 -29 -66 -1 -4 17 -14 20 -67
20 -53 0 -63 -3 -67 -20 -4 -14 -14 -20 -33 -20 -19 0 -29 6 -33 20 -4 17 -14
20 -54 20 -27 0 -53 -3 -56 -7z m473 -108 c0 -10 -432 -20 -458 -10 -7 3 -10
9 -7 15 9 14 465 9 465 -5z m-55 -55 c-4 -6 -73 -10 -175 -10 -102 0 -171 4
-175 10 -4 7 57 10 175 10 118 0 179 -3 175 -10z m0 -260 c-4 -6 -73 -10 -175
-10 -102 0 -171 4 -175 10 -4 7 57 10 175 10 118 0 179 -3 175 -10z m20 -40
c-4 -6 -80 -10 -195 -10 -115 0 -191 4 -195 10 -4 7 63 10 195 10 132 0 199
-3 195 -10z m18 -75 c2 -10 -395 -20 -421 -10 -7 3 -10 9 -7 15 9 14 424 9
428 -5z"/>
<path d="M2143 6615 c1 -23 10 -34 35 -46 42 -21 24 -29 -65 -29 -53 0 -75 -5
-110 -25 -23 -14 -43 -30 -43 -34 0 -26 32 -30 188 -23 89 4 235 4 324 0 156
-7 188 -3 188 23 0 4 -20 20 -43 34 -35 20 -57 25 -110 25 -89 0 -107 8 -65
29 25 12 34 23 35 46 1 17 0 24 -3 18 -4 -10 -47 -13 -164 -13 -117 0 -160 3
-164 13 -3 6 -4 -1 -3 -18z"/>
<path d="M3995 6594 c-27 -8 -62 -18 -77 -21 -22 -4 -28 -11 -28 -30 0 -20 4
-24 18 -18 81 35 103 39 202 39 99 0 121 -4 203 -39 14 -6 17 -2 17 19 0 19
-5 26 -19 26 -10 0 -36 7 -56 16 -56 23 -198 28 -260 8z"/>
<path d="M4010 6530 c-19 -5 -51 -15 -70 -24 l-35 -15 50 -22 c42 -20 67 -23
155 -23 88 0 113 3 155 23 l50 23 -50 20 c-57 22 -199 33 -255 18z"/>
<path d="M1860 5900 l0 -450 -450 0 -450 0 0 -450 0 -450 450 0 450 0 0 -450
0 -450 -450 0 -450 0 0 -450 0 -450 450 0 450 0 0 -450 0 -450 -450 0 -450 0
0 -450 0 -450 450 0 450 0 0 450 0 450 450 0 450 0 0 -450 0 -450 450 0 450 0
0 450 0 450 450 0 450 0 0 -450 0 -450 450 0 450 0 0 450 0 450 450 0 450 0 0
450 0 450 -450 0 -450 0 0 450 0 450 450 0 450 0 0 450 0 450 -450 0 -450 0 0
450 0 450 450 0 450 0 0 450 0 450 -450 0 -450 0 0 -450 0 -450 -450 0 -450 0
0 450 0 450 -450 0 -450 0 0 -450 0 -450 -450 0 -450 0 0 450 0 450 -450 0
-450 0 0 -450z m900 -900 l0 -450 450 0 450 0 0 450 0 450 450 0 450 0 0 -450
0 -450 450 0 450 0 0 -450 0 -450 -450 0 -450 0 0 -450 0 -450 450 0 450 0 0
-450 0 -450 -450 0 -450 0 0 450 0 450 -450 0 -450 0 0 -450 0 -450 -450 0
-450 0 0 450 0 450 -450 0 -450 0 0 450 0 450 450 0 450 0 0 450 0 450 -450 0
-450 0 0 450 0 450 450 0 450 0 0 -450z m-1305 -3367 c13 -12 16 -27 12 -56
-5 -35 -2 -44 24 -69 38 -39 41 -108 5 -153 l-23 -29 41 -26 c50 -32 94 -109
103 -180 l6 -50 -213 0 -213 0 6 50 c9 71 53 148 103 180 l41 26 -23 29 c-36
45 -33 114 5 153 26 25 29 34 24 69 -6 47 14 73 57 73 16 0 36 -8 45 -17z
m1800 0 c13 -12 16 -27 12 -56 -5 -35 -2 -44 24 -69 38 -39 41 -108 5 -153
l-23 -29 41 -26 c50 -32 94 -109 103 -180 l6 -50 -213 0 -213 0 6 50 c9 71 53
148 103 180 l41 26 -23 29 c-36 45 -33 114 5 153 26 25 29 34 24 69 -6 47 14
73 57 73 16 0 36 -8 45 -17z m1800 0 c13 -12 16 -27 12 -56 -5 -35 -2 -44 24
-69 38 -39 41 -108 5 -153 l-23 -29 41 -26 c50 -32 94 -109 103 -180 l6 -50
-213 0 -213 0 6 50 c9 71 53 148 103 180 l41 26 -23 29 c-36 45 -33 114 5 153
26 25 29 34 24 69 -6 47 14 73 57 73 16 0 36 -8 45 -17z"/>
<path d="M3660 4100 l0 -450 -450 0 -450 0 0 -450 0 -450 450 0 450 0 0 450 0
450 450 0 450 0 0 450 0 450 -450 0 -450 0 0 -450z"/>
<path d="M1372 6175 c-37 -16 -65 -68 -55 -104 4 -15 -2 -30 -17 -46 -29 -31
-42 -90 -29 -137 5 -20 14 -40 19 -43 5 -3 -8 -21 -29 -40 -48 -43 -88 -133
-93 -205 l-3 -55 245 0 245 0 -3 55 c-5 72 -45 162 -93 205 -21 19 -34 37 -29
40 5 3 14 23 19 43 13 47 0 106 -29 137 -15 16 -21 31 -17 46 10 37 -18 88
-57 104 -41 18 -33 18 -74 0z"/>
<path d="M3172 6175 c-37 -16 -65 -68 -55 -104 4 -15 -2 -30 -17 -46 -29 -31
-42 -90 -29 -137 5 -20 14 -40 19 -43 5 -3 -8 -21 -29 -40 -48 -43 -88 -133
-93 -205 l-3 -55 245 0 245 0 -3 55 c-5 72 -45 162 -93 205 -21 19 -34 37 -29
40 5 3 14 23 19 43 13 47 0 106 -29 137 -15 16 -21 31 -17 46 10 37 -18 88
-57 104 -41 18 -33 18 -74 0z"/>
<path d="M4972 6175 c-37 -16 -65 -68 -55 -104 4 -15 -2 -30 -17 -46 -29 -31
-42 -90 -29 -137 5 -20 14 -40 19 -43 5 -3 -8 -21 -29 -40 -48 -43 -88 -133
-93 -205 l-3 -55 245 0 245 0 -3 55 c-5 72 -45 162 -93 205 -21 19 -34 37 -29
40 5 3 14 23 19 43 13 47 0 106 -29 137 -15 16 -21 31 -17 46 10 37 -18 88
-57 104 -41 18 -33 18 -74 0z"/>
<path d="M6772 6175 c-37 -16 -65 -68 -55 -104 4 -15 -2 -30 -17 -46 -29 -31
-42 -90 -29 -137 5 -20 14 -40 19 -43 5 -3 -8 -21 -29 -40 -48 -43 -88 -133
-93 -205 l-3 -55 245 0 245 0 -3 55 c-5 72 -45 162 -93 205 -21 19 -34 37 -29
40 5 3 14 23 19 43 13 47 0 106 -29 137 -15 16 -21 31 -17 46 10 37 -18 88
-57 104 -41 18 -33 18 -74 0z"/>
<path d="M472 1675 c-37 -16 -65 -68 -55 -104 4 -15 -2 -30 -17 -46 -29 -31
-42 -90 -29 -137 5 -20 14 -40 19 -43 5 -3 -8 -21 -29 -40 -48 -43 -88 -133
-93 -205 l-3 -55 245 0 245 0 -3 55 c-5 72 -45 162 -93 205 -21 19 -34 37 -29
40 5 3 14 23 19 43 13 47 0 106 -29 137 -15 16 -21 31 -17 46 10 37 -18 88
-57 104 -41 18 -33 18 -74 0z m83 -42 c13 -12 16 -27 12 -56 -5 -35 -2 -44 24
-69 38 -39 41 -108 5 -153 l-23 -29 41 -26 c50 -32 94 -109 103 -180 l6 -50
-213 0 -213 0 6 50 c9 71 53 148 103 180 l41 26 -23 29 c-36 45 -33 114 5 153
26 25 29 34 24 69 -6 47 14 73 57 73 16 0 36 -8 45 -17z"/>
<path d="M2272 1675 c-37 -16 -65 -68 -55 -104 4 -15 -2 -30 -17 -46 -29 -31
-42 -90 -29 -137 5 -20 14 -40 19 -43 5 -3 -8 -21 -29 -40 -48 -43 -88 -133
-93 -205 l-3 -55 245 0 245 0 -3 55 c-5 72 -45 162 -93 205 -21 19 -34 37 -29
40 5 3 14 23 19 43 13 47 0 106 -29 137 -15 16 -21 31 -17 46 10 37 -18 88
-57 104 -41 18 -33 18 -74 0z m83 -42 c13 -12 16 -27 12 -56 -5 -35 -2 -44 24
-69 38 -39 41 -108 5 -153 l-23 -29 41 -26 c50 -32 94 -109 103 -180 l6 -50
-213 0 -213 0 6 50 c9 71 53 148 103 180 l41 26 -23 29 c-36 45 -33 114 5 153
26 25 29 34 24 69 -6 47 14 73 57 73 16 0 36 -8 45 -17z"/>
<path d="M4072 1675 c-37 -16 -65 -68 -55 -104 4 -15 -2 -30 -17 -46 -29 -31
-42 -90 -29 -137 5 -20 14 -40 19 -43 5 -3 -8 -21 -29 -40 -48 -43 -88 -133
-93 -205 l-3 -55 245 0 245 0 -3 55 c-5 72 -45 162 -93 205 -21 19 -34 37 -29
40 5 3 14 23 19 43 13 47 0 106 -29 137 -15 16 -21 31 -17 46 10 37 -18 88
-57 104 -41 18 -33 18 -74 0z m83 -42 c13 -12 16 -27 12 -56 -5 -35 -2 -44 24
-69 38 -39 41 -108 5 -153 l-23 -29 41 -26 c50 -32 94 -109 103 -180 l6 -50
-213 0 -213 0 6 50 c9 71 53 148 103 180 l41 26 -23 29 c-36 45 -33 114 5 153
26 25 29 34 24 69 -6 47 14 73 57 73 16 0 36 -8 45 -17z"/>
<path d="M5872 1675 c-37 -16 -65 -68 -55 -104 4 -15 -2 -30 -17 -46 -29 -31
-42 -90 -29 -137 5 -20 14 -40 19 -43 5 -3 -8 -21 -29 -40 -48 -43 -88 -133
-93 -205 l-3 -55 245 0 245 0 -3 55 c-5 72 -45 162 -93 205 -21 19 -34 37 -29
40 5 3 14 23 19 43 13 47 0 106 -29 137 -15 16 -21 31 -17 46 10 37 -18 88
-57 104 -41 18 -33 18 -74 0z m83 -42 c13 -12 16 -27 12 -56 -5 -35 -2 -44 24
-69 38 -39 41 -108 5 -153 l-23 -29 41 -26 c50 -32 94 -109 103 -180 l6 -50
-213 0 -213 0 6 50 c9 71 53 148 103 180 l41 26 -23 29 c-36 45 -33 114 5 153
26 25 29 34 24 69 -6 47 14 73 57 73 16 0 36 -8 45 -17z"/>
<path d="M3175 825 c-30 -29 -31 -35 -5 -68 l20 -26 -20 -93 c-11 -51 -22 -97
-23 -103 -2 -5 -20 34 -41 87 -35 92 -36 98 -21 122 13 19 14 29 5 45 -24 47
-75 47 -100 1 -12 -22 0 -53 25 -68 13 -7 15 -27 13 -113 l-3 -104 -52 80
c-29 44 -51 86 -48 93 3 6 8 19 11 27 6 15 -37 65 -56 65 -14 0 -60 -46 -60
-61 0 -6 14 -24 30 -39 26 -25 33 -44 55 -150 20 -99 30 -128 55 -158 33 -41
37 -58 16 -81 -8 -9 -17 -34 -21 -57 -11 -68 -6 -69 255 -69 261 0 266 1 255
69 -4 23 -13 48 -21 57 -21 23 -17 40 16 81 25 30 35 59 55 158 22 106 29 125
55 150 16 15 30 33 30 39 0 15 -46 61 -60 61 -22 0 -62 -50 -54 -68 13 -31 8
-47 -42 -122 l-49 -75 -3 104 c-2 86 0 106 13 113 25 15 37 46 25 68 -25 46
-76 46 -100 -1 -9 -16 -8 -26 5 -45 15 -24 14 -30 -21 -122 -21 -53 -39 -92
-41 -87 -1 6 -12 52 -23 103 l-20 93 20 26 c11 14 20 30 20 35 0 13 -47 58
-60 58 -6 0 -22 -11 -35 -25z m55 -33 c0 -24 -8 -32 -26 -25 -22 8 -17 43 6
43 13 0 20 -7 20 -18z m-170 -20 c0 -24 -8 -32 -26 -25 -22 8 -17 43 6 43 13
0 20 -7 20 -18z m340 0 c0 -24 -8 -32 -26 -25 -22 8 -17 43 6 43 13 0 20 -7
20 -18z m-500 -60 c0 -24 -8 -32 -26 -25 -22 8 -17 43 6 43 13 0 20 -7 20 -18z
m660 0 c0 -24 -8 -32 -26 -25 -22 8 -17 43 6 43 13 0 20 -7 20 -18z m-331
-129 c7 -38 15 -78 18 -90 5 -21 2 -23 -37 -23 -39 0 -42 2 -37 23 3 12 11 52
18 90 7 37 15 67 19 67 4 0 12 -30 19 -67z m-122 -115 c-47 -13 -47 -13 -46
85 l0 92 34 -85 34 -85 -22 -7z m251 -3 c-2 -2 -17 0 -35 3 l-31 7 31 83 32
84 3 -87 c2 -48 1 -89 0 -90z m-388 65 c43 -63 44 -80 5 -80 -21 0 -25 7 -35
58 -6 31 -13 63 -15 70 -9 25 5 10 45 -48z m525 48 c-2 -7 -9 -39 -15 -70 -12
-59 -25 -70 -59 -49 -10 7 -5 22 28 70 41 59 55 74 46 49z m-72 -157 c35 -6
37 -7 23 -26 -13 -19 -25 -20 -237 -19 -214 0 -223 1 -236 21 -14 21 -12 21
49 27 35 3 79 8 98 10 44 5 252 -4 303 -13z m-45 -77 c12 -4 22 -14 22 -23 0
-14 -21 -16 -190 -16 -171 0 -190 2 -190 17 0 9 8 19 18 21 26 7 314 8 340 1z
m-15 -72 c43 -6 50 -11 63 -40 12 -29 12 -34 -4 -40 -22 -9 -402 -9 -424 0
-16 6 -16 11 -4 40 12 28 20 34 58 39 59 8 253 9 311 1z"/>
<path d="M4974 832 c-24 -16 -34 -50 -24 -78 8 -21 8 -29 -2 -35 -82 -47 -121
-102 -126 -177 -3 -49 0 -63 22 -96 21 -29 24 -41 16 -52 -7 -7 -12 -35 -13
-61 -2 -45 0 -49 31 -64 42 -21 24 -29 -65 -29 -53 0 -75 -5 -110 -25 -23 -14
-43 -30 -43 -34 0 -26 32 -30 188 -23 89 4 235 4 324 0 156 -7 188 -3 188 23
0 4 -20 20 -43 34 -35 20 -57 25 -110 25 -89 0 -107 8 -65 29 31 15 33 19 31
64 -1 26 -6 54 -13 61 -8 11 -5 23 16 52 22 33 25 47 22 96 -5 75 -44 130
-126 177 -10 6 -10 14 -2 35 17 45 -12 86 -60 86 -14 0 -30 -4 -36 -8z m64
-53 c3 -28 -16 -43 -43 -33 -15 6 -21 45 -8 58 16 16 48 1 51 -25z m5 -84
c111 -46 163 -187 90 -245 -22 -17 -40 -20 -123 -20 -112 0 -145 16 -156 75
-12 68 43 156 119 189 18 8 33 15 33 15 1 1 18 -6 37 -14z m87 -314 c5 -11 10
-22 10 -25 0 -3 -58 -6 -130 -6 -71 0 -130 3 -130 6 0 3 5 14 10 25 10 17 22
19 120 19 98 0 110 -2 120 -19z m9 -77 c-35 -34 -223 -34 -258 0 -14 15 -2 16
129 16 131 0 143 -1 129 -16z m-55 -85 c27 -5 78 -9 115 -9 41 -1 76 -7 91
-16 25 -15 24 -15 -14 -9 -50 8 -481 8 -532 0 -38 -6 -38 -5 -14 8 14 8 67 17
125 20 55 3 111 10 125 16 14 5 32 7 40 5 8 -3 37 -10 64 -15z"/>
<path d="M4997 634 c-4 -4 -7 -16 -7 -26 0 -11 -7 -18 -20 -18 -11 0 -20 -7
-20 -15 0 -8 9 -15 19 -15 12 0 21 -9 25 -25 4 -14 11 -25 16 -25 5 0 12 11
16 25 4 16 13 25 25 25 10 0 19 7 19 15 0 8 -9 15 -19 15 -12 0 -21 8 -23 22
-3 22 -19 33 -31 22z"/>
<path d="M1340 789 l-31 -32 -29 28 c-41 39 -66 31 -62 -22 2 -35 -5 -53 -43
-112 -77 -118 -117 -210 -110 -251 9 -46 31 -70 66 -70 15 0 31 -4 34 -10 11
-18 41 -11 66 16 13 14 58 52 100 84 l76 58 -10 -39 c-6 -24 -30 -62 -63 -99
-63 -70 -81 -102 -86 -150 l-3 -35 245 0 245 0 -3 115 c-5 197 -43 322 -120
397 -39 38 -111 76 -165 88 -20 4 -31 15 -39 35 -13 38 -29 38 -68 -1z m108
-70 c102 -27 172 -88 210 -184 24 -60 42 -172 42 -262 l0 -93 -210 0 c-184 0
-210 2 -210 16 0 25 19 55 76 118 55 60 83 123 85 185 0 20 4 45 8 56 9 22 4
45 -9 45 -5 0 -14 -16 -20 -35 -7 -22 -33 -53 -67 -83 -31 -26 -79 -68 -108
-95 -46 -41 -52 -44 -48 -23 7 34 -16 44 -37 16 -27 -36 -54 -23 -58 28 -3 36
5 58 44 130 25 48 60 106 77 129 19 27 30 54 29 74 -1 31 0 31 14 10 22 -31
67 -28 90 7 l18 27 6 -25 c5 -20 16 -27 68 -41z"/>
<path d="M1230 651 c-13 -26 -13 -48 2 -57 14 -9 48 31 48 57 0 25 -36 25 -50
0z"/>
<path d="M1118 448 c-8 -21 2 -38 22 -38 22 0 33 23 17 39 -15 15 -34 14 -39
-1z"/>
<path d="M6567 773 c-4 -3 -7 -29 -7 -58 0 -44 4 -55 30 -80 l30 -29 0 -131
c0 -119 -2 -134 -20 -150 -12 -11 -20 -31 -20 -51 0 -28 -4 -33 -27 -36 -25
-3 -28 -7 -28 -43 l0 -40 285 0 285 0 0 40 c0 36 -3 40 -27 43 -24 3 -28 8
-28 36 0 20 -8 40 -20 51 -18 16 -20 31 -20 150 l0 131 30 29 c28 27 31 34 28
85 l-3 55 -53 3 c-47 3 -54 1 -59 -17 -7 -29 -59 -29 -66 -1 -4 17 -14 20 -67
20 -53 0 -63 -3 -67 -20 -4 -14 -14 -20 -33 -20 -19 0 -29 6 -33 20 -4 17 -14
20 -54 20 -27 0 -53 -3 -56 -7z m76 -43 c4 -17 14 -20 67 -20 53 0 63 3 67 20
4 14 14 20 33 20 19 0 29 -6 33 -20 4 -17 14 -20 67 -20 53 0 63 3 67 20 3 11
14 20 24 20 15 0 19 -7 19 -35 l0 -35 -210 0 -210 0 0 35 c0 28 4 35 19 35 10
0 21 -9 24 -20z m347 -95 c-10 -12 -43 -15 -180 -15 -137 0 -170 3 -180 15
-11 13 10 15 180 15 170 0 191 -2 180 -15z m-30 -145 l0 -120 -150 0 -150 0 0
120 0 120 150 0 150 0 0 -120z m10 -150 c11 -20 8 -20 -160 -20 -168 0 -171 0
-160 20 10 19 21 20 160 20 139 0 150 -1 160 -20z m30 -75 l0 -25 -190 0 -190
0 0 25 0 25 190 0 190 0 0 -25z m60 -70 c0 -13 -34 -15 -250 -15 -216 0 -250
2 -250 15 0 13 34 15 250 15 216 0 250 -2 250 -15z"/>
<path d="M5730 651 c-13 -26 -13 -48 2 -57 14 -9 48 31 48 57 0 25 -36 25 -50
0z"/>
<path d="M5618 448 c-8 -21 2 -38 22 -38 22 0 33 23 17 39 -15 15 -34 14 -39
-1z"/>
<path d="M2297 634 c-4 -4 -7 -16 -7 -26 0 -11 -7 -18 -20 -18 -11 0 -20 -7
-20 -15 0 -8 9 -15 19 -15 12 0 21 -9 25 -25 4 -14 11 -25 16 -25 5 0 12 11
16 25 4 16 13 25 25 25 10 0 19 7 19 15 0 8 -9 15 -19 15 -12 0 -21 8 -23 22
-3 22 -19 33 -31 22z"/>
</g>
</svg>
